<?xml version="1.0" standalone="no"?>
<!DOCTYPE svg PUBLIC "-//W3C//DTD SVG 20010904//EN"
 "http://www.w3.org/TR/2001/REC-SVG-20010904/DTD/svg10.dtd">
<svg version="1.0" xmlns="http://www.w3.org/2000/svg"
 width="100.000000pt" height="100.000000pt" viewBox="0 0 100.000000 100.000000"
 preserveAspectRatio="xMidYMid meet">
<metadata>
Created by potrace 1.11, written by Peter Selinger 2001-2013
</metadata>
<g transform="translate(0.000000,100.000000) scale(0.100000,-0.100000)"
fill="#000000" stroke="none">
<path d="M0 500 l0 -500 28 0 c15 0 32 4 38 9 5 5 28 12 51 15 31 4 43 1 47
-9 6 -17 46 -21 46 -5 0 5 -7 6 -17 3 -11 -4 -14 -3 -9 5 4 7 3 12 -1 12 -5 0
-7 18 -5 40 4 37 22 58 22 25 0 -13 26 -21 54 -16 4 1 24 -7 43 -19 l34 -20
10 28 c11 33 45 57 62 44 25 -18 157 0 225 31 13 6 29 25 37 43 18 44 32 49
38 15 5 -23 10 -28 26 -24 20 5 24 -3 44 -92 3 -12 5 -5 6 15 0 19 -3 51 -9
70 l-9 35 25 -30 c14 -16 42 -49 62 -72 58 -68 59 -73 15 -73 -67 0 -21 -21
61 -27 l76 -6 0 502 0 501 -500 0 -500 0 0 -500z m579 376 c84 -53 122 -120
136 -237 6 -51 9 -56 30 -52 29 6 37 -23 25 -86 -11 -61 -20 -82 -31 -75 -5 3
-7 -1 -5 -8 7 -21 -28 -141 -41 -146 -7 -2 -13 3 -13 12 0 9 -7 16 -15 16 -8
0 -15 -9 -15 -20 0 -15 -7 -20 -26 -20 -23 0 -25 3 -20 26 l7 26 -50 -7 c-46
-6 -50 -5 -48 14 1 16 8 21 29 21 15 0 29 4 32 8 5 8 -14 11 -74 12 l-34 0 26
25 c15 14 33 25 39 25 8 0 6 7 -4 18 -10 10 -17 33 -17 50 0 49 -17 47 -44 -6
-19 -37 -22 -52 -13 -61 8 -8 8 -14 0 -22 -7 -7 -8 -21 -3 -40 10 -33 40 -69
40 -47 0 7 6 2 14 -12 7 -14 11 -28 9 -32 -7 -13 -40 -9 -53 7 -7 8 -23 15
-35 15 -29 0 -50 45 -59 125 -4 33 -11 61 -16 63 -23 8 23 72 52 72 31 0 15
23 -22 33 -22 5 -29 12 -23 18 16 16 81 -1 102 -27 10 -13 21 -21 24 -17 9 8
-11 43 -24 43 -6 0 -17 7 -25 15 -9 8 -33 15 -54 15 -46 0 -53 18 -44 111 5
54 11 67 42 98 19 20 32 30 28 24 -4 -7 -3 -13 3 -13 5 0 13 9 16 21 14 43 96
51 154 15z"/>
<path d="M605 620 c-7 -12 12 -12 40 0 18 8 17 9 -7 9 -15 1 -30 -3 -33 -9z"/>
<path d="M595 564 c11 -8 26 -12 33 -9 8 3 19 5 25 5 7 0 6 4 -3 10 -8 5 -28
10 -45 10 -29 -1 -29 -1 -10 -16z"/>
</g>
</svg>
